# xmcd
#
# Track frame offsets:
#	150
#	14662
#	28530
#	42542
#	56815
#	69820
#	82615
#	94820
#	107310
#	120040
#	133797
#	147137
#	158815
#	173865
#	187717
#	203387
#	220267
#	234075
#	247682
#	261600
#	276822
#	288177
#	302242
#
# Disc length: 4205 seconds
# Revision: 3
# Processed by: cddbd v1.5.2PL0 Copyright (c) Steve Scherf et al.
# Submitted via: dBpowerAMP V12.0
#
DISCID=2a106b17
DTITLE=John Lee Hooker - Vol.5: Detroit 1951-1953
DYEAR=2004
DGENRE=Blues
TTITLE0=Where Did You Stay Last Night
TTITLE1=I Got Drunk
TTITLE2=I Got Drunk
TTITLE3=Cold Chills
TTITLE4=Rock Me Mama
TTITLE5=Rock Me Mama
TTITLE6=Rock Me Mama
TTITLE7=I Come to You Baby
TTITLE8=Someone to Love
TTITLE9=Someone to Love
TTITLE10=Walking the Boogie
TTITLE11=Walking the Boogie
TTITLE12=Sugar Mama
TTITLE13=I Don't Want Your Money
TTITLE14=Hey Baby, You Look Good to Me
TTITLE15=The Journey
TTITLE16=Bluebird
TTITLE17=Love Blues
TTITLE18=Apologize
TTITLE19=Lonely Boy Boogie
TTITLE20=Please Don't Go
TTITLE21=Worried Life Blues
TTITLE22=Down at the Landing
EXTD=
EXTT0=
EXTT1=
EXTT2=
EXTT3=
EXTT4=
EXTT5=
EXTT6=
EXTT7=
EXTT8=
EXTT9=
EXTT10=
EXTT11=
EXTT12=
EXTT13=
EXTT14=
EXTT15=
EXTT16=
EXTT17=
EXTT18=
EXTT19=
EXTT20=
EXTT21=
EXTT22=
PLAYORDER=
